<svg xmlns="http://www.w3.org/2000/svg" xmlns:xlink="http://www.w3.org/1999/xlink" style="margin:auto;background:#151515;display:block;z-index:1;position:relative" width="1084" height="322" preserveAspectRatio="xMidYMid" viewBox="0 0 1084 322">
<defs>
  <pattern id="pid-0.9461528261162737" x="0" y="0" width="163.84" height="163.84" patternUnits="userSpaceOnUse">
    <g transform="scale(0.64)"><g>
  <line x1="134.3906893959559" x2="109.91328346491966" y1="222.803817995103" y2="247.28122392613923" stroke-width="5" stroke="#353535" stroke-linecap="round"></line><line x1="134.3906893959559" x2="109.91328346491966" y1="-289.19618200489697" y2="-264.7187760738608" stroke-width="5" stroke="#353535" stroke-linecap="round"></line><line x1="390.39068939595586" x2="365.9132834649197" y1="-289.19618200489697" y2="-264.7187760738608" stroke-width="5" stroke="#353535" stroke-linecap="round"></line><line x1="646.3906893959559" x2="621.9132834649197" y1="-289.19618200489697" y2="-264.7187760738608" stroke-width="5" stroke="#353535" stroke-linecap="round"></line><line x1="134.3906893959559" x2="109.91328346491966" y1="-33.196182004897" y2="-8.718776073860766" stroke-width="5" stroke="#353535" stroke-linecap="round"></line><line x1="390.39068939595586" x2="365.9132834649197" y1="-33.196182004897" y2="-8.718776073860766" stroke-width="5" stroke="#353535" stroke-linecap="round"></line><line x1="646.3906893959559" x2="621.9132834649197" y1="-33.196182004897" y2="-8.718776073860766" stroke-width="5" stroke="#353535" stroke-linecap="round"></line><line x1="134.3906893959559" x2="109.91328346491966" y1="222.803817995103" y2="247.28122392613923" stroke-width="5" stroke="#353535" stroke-linecap="round"></line><line x1="390.39068939595586" x2="365.9132834649197" y1="222.803817995103" y2="247.28122392613923" stroke-width="5" stroke="#353535" stroke-linecap="round"></line><line x1="646.3906893959559" x2="621.9132834649197" y1="222.803817995103" y2="247.28122392613923" stroke-width="5" stroke="#353535" stroke-linecap="round"></line><line x1="34.12277075971003" x2="25.053576928142938" y1="46.12584069442931" y2="55.1950345259964" stroke-width="5" stroke="#353535" stroke-linecap="round"></line><line x1="34.12277075971003" x2="25.053576928142938" y1="-465.8741593055707" y2="-456.8049654740036" stroke-width="5" stroke="#353535" stroke-linecap="round"></line><line x1="290.12277075971" x2="281.05357692814295" y1="-465.8741593055707" y2="-456.8049654740036" stroke-width="5" stroke="#353535" stroke-linecap="round"></line><line x1="546.1227707597101" x2="537.0535769281429" y1="-465.8741593055707" y2="-456.8049654740036" stroke-width="5" stroke="#353535" stroke-linecap="round"></line><line x1="34.12277075971003" x2="25.053576928142938" y1="-209.87415930557069" y2="-200.8049654740036" stroke-width="5" stroke="#353535" stroke-linecap="round"></line><line x1="290.12277075971" x2="281.05357692814295" y1="-209.87415930557069" y2="-200.8049654740036" stroke-width="5" stroke="#353535" stroke-linecap="round"></line><line x1="546.1227707597101" x2="537.0535769281429" y1="-209.87415930557069" y2="-200.8049654740036" stroke-width="5" stroke="#353535" stroke-linecap="round"></line><line x1="34.12277075971003" x2="25.053576928142938" y1="46.12584069442931" y2="55.1950345259964" stroke-width="5" stroke="#353535" stroke-linecap="round"></line><line x1="290.12277075971" x2="281.05357692814295" y1="46.12584069442931" y2="55.1950345259964" stroke-width="5" stroke="#353535" stroke-linecap="round"></line><line x1="546.1227707597101" x2="537.0535769281429" y1="46.12584069442931" y2="55.1950345259964" stroke-width="5" stroke="#353535" stroke-linecap="round"></line><line x1="200.48827144622766" x2="180.82338599331644" y1="30.428577227117728" y2="50.09346268002895" stroke-width="5" stroke="#353535" stroke-linecap="round"></line><line x1="200.48827144622766" x2="180.82338599331644" y1="-481.5714227728823" y2="-461.90653731997105" stroke-width="5" stroke="#353535" stroke-linecap="round"></line><line x1="456.48827144622766" x2="436.82338599331644" y1="-481.5714227728823" y2="-461.90653731997105" stroke-width="5" stroke="#353535" stroke-linecap="round"></line><line x1="712.4882714462276" x2="692.8233859933164" y1="-481.5714227728823" y2="-461.90653731997105" stroke-width="5" stroke="#353535" stroke-linecap="round"></line><line x1="200.48827144622766" x2="180.82338599331644" y1="-225.57142277288227" y2="-205.90653731997105" stroke-width="5" stroke="#353535" stroke-linecap="round"></line><line x1="456.48827144622766" x2="436.82338599331644" y1="-225.57142277288227" y2="-205.90653731997105" stroke-width="5" stroke="#353535" stroke-linecap="round"></line><line x1="712.4882714462276" x2="692.8233859933164" y1="-225.57142277288227" y2="-205.90653731997105" stroke-width="5" stroke="#353535" stroke-linecap="round"></line><line x1="200.48827144622766" x2="180.82338599331644" y1="30.428577227117728" y2="50.09346268002895" stroke-width="5" stroke="#353535" stroke-linecap="round"></line><line x1="456.48827144622766" x2="436.82338599331644" y1="30.428577227117728" y2="50.09346268002895" stroke-width="5" stroke="#353535" stroke-linecap="round"></line><line x1="712.4882714462276" x2="692.8233859933164" y1="30.428577227117728" y2="50.09346268002895" stroke-width="5" stroke="#353535" stroke-linecap="round"></line><line x1="203.32313659226108" x2="193.559768357943" y1="175.7218749195936" y2="185.48524315391168" stroke-width="5" stroke="#353535" stroke-linecap="round"></line><line x1="203.32313659226108" x2="193.559768357943" y1="-336.2781250804064" y2="-326.5147568460883" stroke-width="5" stroke="#353535" stroke-linecap="round"></line><line x1="459.3231365922611" x2="449.55976835794297" y1="-336.2781250804064" y2="-326.5147568460883" stroke-width="5" stroke="#353535" stroke-linecap="round"></line><line x1="715.3231365922611" x2="705.559768357943" y1="-336.2781250804064" y2="-326.5147568460883" stroke-width="5" stroke="#353535" stroke-linecap="round"></line><line x1="203.32313659226108" x2="193.559768357943" y1="-80.2781250804064" y2="-70.51475684608832" stroke-width="5" stroke="#353535" stroke-linecap="round"></line><line x1="459.3231365922611" x2="449.55976835794297" y1="-80.2781250804064" y2="-70.51475684608832" stroke-width="5" stroke="#353535" stroke-linecap="round"></line><line x1="715.3231365922611" x2="705.559768357943" y1="-80.2781250804064" y2="-70.51475684608832" stroke-width="5" stroke="#353535" stroke-linecap="round"></line><line x1="203.32313659226108" x2="193.559768357943" y1="175.7218749195936" y2="185.48524315391168" stroke-width="5" stroke="#353535" stroke-linecap="round"></line><line x1="459.3231365922611" x2="449.55976835794297" y1="175.7218749195936" y2="185.48524315391168" stroke-width="5" stroke="#353535" stroke-linecap="round"></line><line x1="715.3231365922611" x2="705.559768357943" y1="175.7218749195936" y2="185.48524315391168" stroke-width="5" stroke="#353535" stroke-linecap="round"></line><line x1="88.06904347639656" x2="74.711539976865" y1="168.33024242846855" y2="181.6877459280001" stroke-width="5" stroke="#353535" stroke-linecap="round"></line><line x1="88.06904347639656" x2="74.711539976865" y1="-343.6697575715315" y2="-330.31225407199986" stroke-width="5" stroke="#353535" stroke-linecap="round"></line><line x1="344.0690434763966" x2="330.71153997686497" y1="-343.6697575715315" y2="-330.31225407199986" stroke-width="5" stroke="#353535" stroke-linecap="round"></line><line x1="600.0690434763966" x2="586.711539976865" y1="-343.6697575715315" y2="-330.31225407199986" stroke-width="5" stroke="#353535" stroke-linecap="round"></line><line x1="88.06904347639656" x2="74.711539976865" y1="-87.66975757153145" y2="-74.31225407199989" stroke-width="5" stroke="#353535" stroke-linecap="round"></line><line x1="344.0690434763966" x2="330.71153997686497" y1="-87.66975757153145" y2="-74.31225407199989" stroke-width="5" stroke="#353535" stroke-linecap="round"></line><line x1="600.0690434763966" x2="586.711539976865" y1="-87.66975757153145" y2="-74.31225407199989" stroke-width="5" stroke="#353535" stroke-linecap="round"></line><line x1="88.06904347639656" x2="74.711539976865" y1="168.33024242846855" y2="181.6877459280001" stroke-width="5" stroke="#353535" stroke-linecap="round"></line><line x1="344.0690434763966" x2="330.71153997686497" y1="168.33024242846855" y2="181.6877459280001" stroke-width="5" stroke="#353535" stroke-linecap="round"></line><line x1="600.0690434763966" x2="586.711539976865" y1="168.33024242846855" y2="181.6877459280001" stroke-width="5" stroke="#353535" stroke-linecap="round"></line><line x1="180.59307158523418" x2="150.84054652276697" y1="39.39227484753926" y2="69.14479991000645" stroke-width="5" stroke="#353535" stroke-linecap="round"></line><line x1="180.59307158523418" x2="150.84054652276697" y1="-472.6077251524607" y2="-442.85520008999356" stroke-width="5" stroke="#353535" stroke-linecap="round"></line><line x1="436.59307158523416" x2="406.840546522767" y1="-472.6077251524607" y2="-442.85520008999356" stroke-width="5" stroke="#353535" stroke-linecap="round"></line><line x1="692.5930715852342" x2="662.840546522767" y1="-472.6077251524607" y2="-442.85520008999356" stroke-width="5" stroke="#353535" stroke-linecap="round"></line><line x1="180.59307158523418" x2="150.84054652276697" y1="-216.60772515246074" y2="-186.85520008999356" stroke-width="5" stroke="#353535" stroke-linecap="round"></line><line x1="436.59307158523416" x2="406.840546522767" y1="-216.60772515246074" y2="-186.85520008999356" stroke-width="5" stroke="#353535" stroke-linecap="round"></line><line x1="692.5930715852342" x2="662.840546522767" y1="-216.60772515246074" y2="-186.85520008999356" stroke-width="5" stroke="#353535" stroke-linecap="round"></line><line x1="180.59307158523418" x2="150.84054652276697" y1="39.39227484753926" y2="69.14479991000645" stroke-width="5" stroke="#353535" stroke-linecap="round"></line><line x1="436.59307158523416" x2="406.840546522767" y1="39.39227484753926" y2="69.14479991000645" stroke-width="5" stroke="#353535" stroke-linecap="round"></line><line x1="692.5930715852342" x2="662.840546522767" y1="39.39227484753926" y2="69.14479991000645" stroke-width="5" stroke="#353535" stroke-linecap="round"></line><line x1="89.07414703901466" x2="61.18567653296074" y1="239.243581179843" y2="267.13205168589695" stroke-width="5" stroke="#353535" stroke-linecap="round"></line><line x1="89.07414703901466" x2="61.18567653296074" y1="-272.756418820157" y2="-244.86794831410305" stroke-width="5" stroke="#353535" stroke-linecap="round"></line><line x1="345.07414703901463" x2="317.18567653296077" y1="-272.756418820157" y2="-244.86794831410305" stroke-width="5" stroke="#353535" stroke-linecap="round"></line><line x1="601.0741470390146" x2="573.1856765329608" y1="-272.756418820157" y2="-244.86794831410305" stroke-width="5" stroke="#353535" stroke-linecap="round"></line><line x1="89.07414703901466" x2="61.18567653296074" y1="-16.756418820156995" y2="11.132051685896954" stroke-width="5" stroke="#353535" stroke-linecap="round"></line><line x1="345.07414703901463" x2="317.18567653296077" y1="-16.756418820156995" y2="11.132051685896954" stroke-width="5" stroke="#353535" stroke-linecap="round"></line><line x1="601.0741470390146" x2="573.1856765329608" y1="-16.756418820156995" y2="11.132051685896954" stroke-width="5" stroke="#353535" stroke-linecap="round"></line><line x1="89.07414703901466" x2="61.18567653296074" y1="239.243581179843" y2="267.13205168589695" stroke-width="5" stroke="#353535" stroke-linecap="round"></line><line x1="345.07414703901463" x2="317.18567653296077" y1="239.243581179843" y2="267.13205168589695" stroke-width="5" stroke="#353535" stroke-linecap="round"></line><line x1="601.0741470390146" x2="573.1856765329608" y1="239.243581179843" y2="267.13205168589695" stroke-width="5" stroke="#353535" stroke-linecap="round"></line><line x1="170.18733721265235" x2="148.69584196590628" y1="139.58157347814662" y2="161.0730687248927" stroke-width="5" stroke="#353535" stroke-linecap="round"></line><line x1="170.18733721265235" x2="148.69584196590628" y1="-372.41842652185335" y2="-350.92693127510734" stroke-width="5" stroke="#353535" stroke-linecap="round"></line><line x1="426.1873372126523" x2="404.6958419659063" y1="-372.41842652185335" y2="-350.92693127510734" stroke-width="5" stroke="#353535" stroke-linecap="round"></line><line x1="682.1873372126523" x2="660.6958419659063" y1="-372.41842652185335" y2="-350.92693127510734" stroke-width="5" stroke="#353535" stroke-linecap="round"></line><line x1="170.18733721265235" x2="148.69584196590628" y1="-116.41842652185338" y2="-94.92693127510731" stroke-width="5" stroke="#353535" stroke-linecap="round"></line><line x1="426.1873372126523" x2="404.6958419659063" y1="-116.41842652185338" y2="-94.92693127510731" stroke-width="5" stroke="#353535" stroke-linecap="round"></line><line x1="682.1873372126523" x2="660.6958419659063" y1="-116.41842652185338" y2="-94.92693127510731" stroke-width="5" stroke="#353535" stroke-linecap="round"></line><line x1="170.18733721265235" x2="148.69584196590628" y1="139.58157347814662" y2="161.0730687248927" stroke-width="5" stroke="#353535" stroke-linecap="round"></line><line x1="426.1873372126523" x2="404.6958419659063" y1="139.58157347814662" y2="161.0730687248927" stroke-width="5" stroke="#353535" stroke-linecap="round"></line><line x1="682.1873372126523" x2="660.6958419659063" y1="139.58157347814662" y2="161.0730687248927" stroke-width="5" stroke="#353535" stroke-linecap="round"></line><line x1="44.61505333697999" x2="31.820336202869335" y1="213.86163577881462" y2="226.65635291292529" stroke-width="5" stroke="#353535" stroke-linecap="round"></line><line x1="44.61505333697999" x2="31.820336202869335" y1="-298.1383642211854" y2="-285.3436470870747" stroke-width="5" stroke="#353535" stroke-linecap="round"></line><line x1="300.61505333698" x2="287.8203362028693" y1="-298.1383642211854" y2="-285.3436470870747" stroke-width="5" stroke="#353535" stroke-linecap="round"></line><line x1="556.6150533369799" x2="543.8203362028694" y1="-298.1383642211854" y2="-285.3436470870747" stroke-width="5" stroke="#353535" stroke-linecap="round"></line><line x1="44.61505333697999" x2="31.820336202869335" y1="-42.138364221185384" y2="-29.343647087074714" stroke-width="5" stroke="#353535" stroke-linecap="round"></line><line x1="300.61505333698" x2="287.8203362028693" y1="-42.138364221185384" y2="-29.343647087074714" stroke-width="5" stroke="#353535" stroke-linecap="round"></line><line x1="556.6150533369799" x2="543.8203362028694" y1="-42.138364221185384" y2="-29.343647087074714" stroke-width="5" stroke="#353535" stroke-linecap="round"></line><line x1="44.61505333697999" x2="31.820336202869335" y1="213.86163577881462" y2="226.65635291292529" stroke-width="5" stroke="#353535" stroke-linecap="round"></line><line x1="300.61505333698" x2="287.8203362028693" y1="213.86163577881462" y2="226.65635291292529" stroke-width="5" stroke="#353535" stroke-linecap="round"></line><line x1="556.6150533369799" x2="543.8203362028694" y1="213.86163577881462" y2="226.65635291292529" stroke-width="5" stroke="#353535" stroke-linecap="round"></line><line x1="64.10914548331269" x2="50.16884928833641" y1="196.95419118975806" y2="210.89448738473433" stroke-width="5" stroke="#353535" stroke-linecap="round"></line><line x1="64.10914548331269" x2="50.16884928833641" y1="-315.04580881024197" y2="-301.10551261526564" stroke-width="5" stroke="#353535" stroke-linecap="round"></line><line x1="320.10914548331266" x2="306.1688492883364" y1="-315.04580881024197" y2="-301.10551261526564" stroke-width="5" stroke="#353535" stroke-linecap="round"></line><line x1="576.1091454833127" x2="562.1688492883364" y1="-315.04580881024197" y2="-301.10551261526564" stroke-width="5" stroke="#353535" stroke-linecap="round"></line><line x1="64.10914548331269" x2="50.16884928833641" y1="-59.04580881024194" y2="-45.10551261526567" stroke-width="5" stroke="#353535" stroke-linecap="round"></line><line x1="320.10914548331266" x2="306.1688492883364" y1="-59.04580881024194" y2="-45.10551261526567" stroke-width="5" stroke="#353535" stroke-linecap="round"></line><line x1="576.1091454833127" x2="562.1688492883364" y1="-59.04580881024194" y2="-45.10551261526567" stroke-width="5" stroke="#353535" stroke-linecap="round"></line><line x1="64.10914548331269" x2="50.16884928833641" y1="196.95419118975806" y2="210.89448738473433" stroke-width="5" stroke="#353535" stroke-linecap="round"></line><line x1="320.10914548331266" x2="306.1688492883364" y1="196.95419118975806" y2="210.89448738473433" stroke-width="5" stroke="#353535" stroke-linecap="round"></line><line x1="576.1091454833127" x2="562.1688492883364" y1="196.95419118975806" y2="210.89448738473433" stroke-width="5" stroke="#353535" stroke-linecap="round"></line>
  <animateTransform attributeName="transform" type="translate" values="0 0;-256 256" keyTimes="0;1" repeatCount="indefinite" dur="5s"></animateTransform>
</g><g>
  <line x1="128.5075906307929" x2="107.32073250244008" y1="181.43413308217004" y2="202.62099121052285" stroke-width="5" stroke="#666666" stroke-linecap="round"></line><line x1="128.5075906307929" x2="107.32073250244008" y1="-330.56586691782996" y2="-309.37900878947715" stroke-width="5" stroke="#666666" stroke-linecap="round"></line><line x1="384.5075906307929" x2="363.3207325024401" y1="-330.56586691782996" y2="-309.37900878947715" stroke-width="5" stroke="#666666" stroke-linecap="round"></line><line x1="640.507590630793" x2="619.32073250244" y1="-330.56586691782996" y2="-309.37900878947715" stroke-width="5" stroke="#666666" stroke-linecap="round"></line><line x1="128.5075906307929" x2="107.32073250244008" y1="-74.56586691782996" y2="-53.379008789477155" stroke-width="5" stroke="#666666" stroke-linecap="round"></line><line x1="384.5075906307929" x2="363.3207325024401" y1="-74.56586691782996" y2="-53.379008789477155" stroke-width="5" stroke="#666666" stroke-linecap="round"></line><line x1="640.507590630793" x2="619.32073250244" y1="-74.56586691782996" y2="-53.379008789477155" stroke-width="5" stroke="#666666" stroke-linecap="round"></line><line x1="128.5075906307929" x2="107.32073250244008" y1="181.43413308217004" y2="202.62099121052285" stroke-width="5" stroke="#666666" stroke-linecap="round"></line><line x1="384.5075906307929" x2="363.3207325024401" y1="181.43413308217004" y2="202.62099121052285" stroke-width="5" stroke="#666666" stroke-linecap="round"></line><line x1="640.507590630793" x2="619.32073250244" y1="181.43413308217004" y2="202.62099121052285" stroke-width="5" stroke="#666666" stroke-linecap="round"></line><line x1="202.0436172449368" x2="185.46170456498334" y1="51.376602425296085" y2="67.95851510524955" stroke-width="5" stroke="#666666" stroke-linecap="round"></line><line x1="202.0436172449368" x2="185.46170456498334" y1="-460.6233975747039" y2="-444.04148489475045" stroke-width="5" stroke="#666666" stroke-linecap="round"></line><line x1="458.0436172449368" x2="441.46170456498334" y1="-460.6233975747039" y2="-444.04148489475045" stroke-width="5" stroke="#666666" stroke-linecap="round"></line><line x1="714.0436172449367" x2="697.4617045649834" y1="-460.6233975747039" y2="-444.04148489475045" stroke-width="5" stroke="#666666" stroke-linecap="round"></line><line x1="202.0436172449368" x2="185.46170456498334" y1="-204.62339757470392" y2="-188.04148489475045" stroke-width="5" stroke="#666666" stroke-linecap="round"></line><line x1="458.0436172449368" x2="441.46170456498334" y1="-204.62339757470392" y2="-188.04148489475045" stroke-width="5" stroke="#666666" stroke-linecap="round"></line><line x1="714.0436172449367" x2="697.4617045649834" y1="-204.62339757470392" y2="-188.04148489475045" stroke-width="5" stroke="#666666" stroke-linecap="round"></line><line x1="202.0436172449368" x2="185.46170456498334" y1="51.376602425296085" y2="67.95851510524955" stroke-width="5" stroke="#666666" stroke-linecap="round"></line><line x1="458.0436172449368" x2="441.46170456498334" y1="51.376602425296085" y2="67.95851510524955" stroke-width="5" stroke="#666666" stroke-linecap="round"></line><line x1="714.0436172449367" x2="697.4617045649834" y1="51.376602425296085" y2="67.95851510524955" stroke-width="5" stroke="#666666" stroke-linecap="round"></line><line x1="90.91539841525912" x2="64.95204948612866" y1="-5.65307338301397" y2="20.31027554611648" stroke-width="5" stroke="#666666" stroke-linecap="round"></line><line x1="90.91539841525912" x2="64.95204948612866" y1="-517.653073383014" y2="-491.6897244538835" stroke-width="5" stroke="#666666" stroke-linecap="round"></line><line x1="346.9153984152591" x2="320.95204948612866" y1="-517.653073383014" y2="-491.6897244538835" stroke-width="5" stroke="#666666" stroke-linecap="round"></line><line x1="602.9153984152591" x2="576.9520494861287" y1="-517.653073383014" y2="-491.6897244538835" stroke-width="5" stroke="#666666" stroke-linecap="round"></line><line x1="90.91539841525912" x2="64.95204948612866" y1="-261.653073383014" y2="-235.6897244538835" stroke-width="5" stroke="#666666" stroke-linecap="round"></line><line x1="346.9153984152591" x2="320.95204948612866" y1="-261.653073383014" y2="-235.6897244538835" stroke-width="5" stroke="#666666" stroke-linecap="round"></line><line x1="602.9153984152591" x2="576.9520494861287" y1="-261.653073383014" y2="-235.6897244538835" stroke-width="5" stroke="#666666" stroke-linecap="round"></line><line x1="90.91539841525912" x2="64.95204948612866" y1="-5.65307338301397" y2="20.31027554611648" stroke-width="5" stroke="#666666" stroke-linecap="round"></line><line x1="346.9153984152591" x2="320.95204948612866" y1="-5.65307338301397" y2="20.31027554611648" stroke-width="5" stroke="#666666" stroke-linecap="round"></line><line x1="602.9153984152591" x2="576.9520494861287" y1="-5.65307338301397" y2="20.31027554611648" stroke-width="5" stroke="#666666" stroke-linecap="round"></line><line x1="90.91539841525912" x2="64.95204948612866" y1="250.34692661698602" y2="276.3102755461165" stroke-width="5" stroke="#666666" stroke-linecap="round"></line><line x1="265.6349341726978" x2="237.67783029444496" y1="194.48900055759998" y2="222.44610443585282" stroke-width="5" stroke="#666666" stroke-linecap="round"></line><line x1="265.6349341726978" x2="237.67783029444496" y1="-317.5109994424" y2="-289.5538955641472" stroke-width="5" stroke="#666666" stroke-linecap="round"></line><line x1="521.6349341726977" x2="493.67783029444496" y1="-317.5109994424" y2="-289.5538955641472" stroke-width="5" stroke="#666666" stroke-linecap="round"></line><line x1="777.6349341726977" x2="749.6778302944449" y1="-317.5109994424" y2="-289.5538955641472" stroke-width="5" stroke="#666666" stroke-linecap="round"></line><line x1="265.6349341726978" x2="237.67783029444496" y1="-61.51099944240002" y2="-33.55389556414718" stroke-width="5" stroke="#666666" stroke-linecap="round"></line><line x1="521.6349341726977" x2="493.67783029444496" y1="-61.51099944240002" y2="-33.55389556414718" stroke-width="5" stroke="#666666" stroke-linecap="round"></line><line x1="777.6349341726977" x2="749.6778302944449" y1="-61.51099944240002" y2="-33.55389556414718" stroke-width="5" stroke="#666666" stroke-linecap="round"></line><line x1="265.6349341726978" x2="237.67783029444496" y1="194.48900055759998" y2="222.44610443585282" stroke-width="5" stroke="#666666" stroke-linecap="round"></line><line x1="521.6349341726977" x2="493.67783029444496" y1="194.48900055759998" y2="222.44610443585282" stroke-width="5" stroke="#666666" stroke-linecap="round"></line><line x1="777.6349341726977" x2="749.6778302944449" y1="194.48900055759998" y2="222.44610443585282" stroke-width="5" stroke="#666666" stroke-linecap="round"></line><line x1="9.634934172697797" x2="-18.32216970555504" y1="194.48900055759998" y2="222.44610443585282" stroke-width="5" stroke="#666666" stroke-linecap="round"></line><line x1="116.75336779677413" x2="103.64910737707895" y1="97.70303554761288" y2="110.80729596730806" stroke-width="5" stroke="#666666" stroke-linecap="round"></line><line x1="116.75336779677413" x2="103.64910737707895" y1="-414.2969644523871" y2="-401.19270403269195" stroke-width="5" stroke="#666666" stroke-linecap="round"></line><line x1="372.7533677967741" x2="359.64910737707896" y1="-414.2969644523871" y2="-401.19270403269195" stroke-width="5" stroke="#666666" stroke-linecap="round"></line><line x1="628.7533677967741" x2="615.649107377079" y1="-414.2969644523871" y2="-401.19270403269195" stroke-width="5" stroke="#666666" stroke-linecap="round"></line><line x1="116.75336779677413" x2="103.64910737707895" y1="-158.2969644523871" y2="-145.19270403269195" stroke-width="5" stroke="#666666" stroke-linecap="round"></line><line x1="372.7533677967741" x2="359.64910737707896" y1="-158.2969644523871" y2="-145.19270403269195" stroke-width="5" stroke="#666666" stroke-linecap="round"></line><line x1="628.7533677967741" x2="615.649107377079" y1="-158.2969644523871" y2="-145.19270403269195" stroke-width="5" stroke="#666666" stroke-linecap="round"></line><line x1="116.75336779677413" x2="103.64910737707895" y1="97.70303554761288" y2="110.80729596730806" stroke-width="5" stroke="#666666" stroke-linecap="round"></line><line x1="372.7533677967741" x2="359.64910737707896" y1="97.70303554761288" y2="110.80729596730806" stroke-width="5" stroke="#666666" stroke-linecap="round"></line><line x1="628.7533677967741" x2="615.649107377079" y1="97.70303554761288" y2="110.80729596730806" stroke-width="5" stroke="#666666" stroke-linecap="round"></line><line x1="188.2621161173079" x2="180.14858835753952" y1="21.71620603182563" y2="29.829733791594013" stroke-width="5" stroke="#666666" stroke-linecap="round"></line><line x1="188.2621161173079" x2="180.14858835753952" y1="-490.2837939681744" y2="-482.17026620840596" stroke-width="5" stroke="#666666" stroke-linecap="round"></line><line x1="444.26211611730787" x2="436.14858835753955" y1="-490.2837939681744" y2="-482.17026620840596" stroke-width="5" stroke="#666666" stroke-linecap="round"></line><line x1="700.2621161173079" x2="692.1485883575396" y1="-490.2837939681744" y2="-482.17026620840596" stroke-width="5" stroke="#666666" stroke-linecap="round"></line><line x1="188.2621161173079" x2="180.14858835753952" y1="-234.28379396817436" y2="-226.170266208406" stroke-width="5" stroke="#666666" stroke-linecap="round"></line><line x1="444.26211611730787" x2="436.14858835753955" y1="-234.28379396817436" y2="-226.170266208406" stroke-width="5" stroke="#666666" stroke-linecap="round"></line><line x1="700.2621161173079" x2="692.1485883575396" y1="-234.28379396817436" y2="-226.170266208406" stroke-width="5" stroke="#666666" stroke-linecap="round"></line><line x1="188.2621161173079" x2="180.14858835753952" y1="21.71620603182563" y2="29.829733791594013" stroke-width="5" stroke="#666666" stroke-linecap="round"></line><line x1="444.26211611730787" x2="436.14858835753955" y1="21.71620603182563" y2="29.829733791594013" stroke-width="5" stroke="#666666" stroke-linecap="round"></line><line x1="700.2621161173079" x2="692.1485883575396" y1="21.71620603182563" y2="29.829733791594013" stroke-width="5" stroke="#666666" stroke-linecap="round"></line><line x1="82.12890427621541" x2="59.63129752294945" y1="6.836675470464105" y2="29.334282223730053" stroke-width="5" stroke="#666666" stroke-linecap="round"></line><line x1="82.12890427621541" x2="59.63129752294945" y1="-505.1633245295359" y2="-482.66571777626996" stroke-width="5" stroke="#666666" stroke-linecap="round"></line><line x1="338.1289042762154" x2="315.63129752294947" y1="-505.1633245295359" y2="-482.66571777626996" stroke-width="5" stroke="#666666" stroke-linecap="round"></line><line x1="594.1289042762154" x2="571.6312975229495" y1="-505.1633245295359" y2="-482.66571777626996" stroke-width="5" stroke="#666666" stroke-linecap="round"></line><line x1="82.12890427621541" x2="59.63129752294945" y1="-249.16332452953588" y2="-226.66571777626996" stroke-width="5" stroke="#666666" stroke-linecap="round"></line><line x1="338.1289042762154" x2="315.63129752294947" y1="-249.16332452953588" y2="-226.66571777626996" stroke-width="5" stroke="#666666" stroke-linecap="round"></line><line x1="594.1289042762154" x2="571.6312975229495" y1="-249.16332452953588" y2="-226.66571777626996" stroke-width="5" stroke="#666666" stroke-linecap="round"></line><line x1="82.12890427621541" x2="59.63129752294945" y1="6.836675470464105" y2="29.334282223730053" stroke-width="5" stroke="#666666" stroke-linecap="round"></line><line x1="338.1289042762154" x2="315.63129752294947" y1="6.836675470464105" y2="29.334282223730053" stroke-width="5" stroke="#666666" stroke-linecap="round"></line><line x1="594.1289042762154" x2="571.6312975229495" y1="6.836675470464105" y2="29.334282223730053" stroke-width="5" stroke="#666666" stroke-linecap="round"></line><line x1="172.1335171936331" x2="146.64489986601416" y1="185.0604884364489" y2="210.54910576406786" stroke-width="5" stroke="#666666" stroke-linecap="round"></line><line x1="172.1335171936331" x2="146.64489986601416" y1="-326.9395115635511" y2="-301.45089423593214" stroke-width="5" stroke="#666666" stroke-linecap="round"></line><line x1="428.1335171936331" x2="402.64489986601416" y1="-326.9395115635511" y2="-301.45089423593214" stroke-width="5" stroke="#666666" stroke-linecap="round"></line><line x1="684.1335171936331" x2="658.6448998660142" y1="-326.9395115635511" y2="-301.45089423593214" stroke-width="5" stroke="#666666" stroke-linecap="round"></line><line x1="172.1335171936331" x2="146.64489986601416" y1="-70.9395115635511" y2="-45.45089423593214" stroke-width="5" stroke="#666666" stroke-linecap="round"></line><line x1="428.1335171936331" x2="402.64489986601416" y1="-70.9395115635511" y2="-45.45089423593214" stroke-width="5" stroke="#666666" stroke-linecap="round"></line><line x1="684.1335171936331" x2="658.6448998660142" y1="-70.9395115635511" y2="-45.45089423593214" stroke-width="5" stroke="#666666" stroke-linecap="round"></line><line x1="172.1335171936331" x2="146.64489986601416" y1="185.0604884364489" y2="210.54910576406786" stroke-width="5" stroke="#666666" stroke-linecap="round"></line><line x1="428.1335171936331" x2="402.64489986601416" y1="185.0604884364489" y2="210.54910576406786" stroke-width="5" stroke="#666666" stroke-linecap="round"></line><line x1="684.1335171936331" x2="658.6448998660142" y1="185.0604884364489" y2="210.54910576406786" stroke-width="5" stroke="#666666" stroke-linecap="round"></line><line x1="206.6265883189278" x2="182.86979204348918" y1="18.225465358397443" y2="41.98226163383602" stroke-width="5" stroke="#666666" stroke-linecap="round"></line><line x1="206.6265883189278" x2="182.86979204348918" y1="-493.77453464160254" y2="-470.017738366164" stroke-width="5" stroke="#666666" stroke-linecap="round"></line><line x1="462.6265883189278" x2="438.86979204348916" y1="-493.77453464160254" y2="-470.017738366164" stroke-width="5" stroke="#666666" stroke-linecap="round"></line><line x1="718.6265883189278" x2="694.8697920434892" y1="-493.77453464160254" y2="-470.017738366164" stroke-width="5" stroke="#666666" stroke-linecap="round"></line><line x1="206.6265883189278" x2="182.86979204348918" y1="-237.77453464160254" y2="-214.017738366164" stroke-width="5" stroke="#666666" stroke-linecap="round"></line><line x1="462.6265883189278" x2="438.86979204348916" y1="-237.77453464160254" y2="-214.017738366164" stroke-width="5" stroke="#666666" stroke-linecap="round"></line><line x1="718.6265883189278" x2="694.8697920434892" y1="-237.77453464160254" y2="-214.017738366164" stroke-width="5" stroke="#666666" stroke-linecap="round"></line><line x1="206.6265883189278" x2="182.86979204348918" y1="18.225465358397443" y2="41.98226163383602" stroke-width="5" stroke="#666666" stroke-linecap="round"></line><line x1="462.6265883189278" x2="438.86979204348916" y1="18.225465358397443" y2="41.98226163383602" stroke-width="5" stroke="#666666" stroke-linecap="round"></line><line x1="718.6265883189278" x2="694.8697920434892" y1="18.225465358397443" y2="41.98226163383602" stroke-width="5" stroke="#666666" stroke-linecap="round"></line><line x1="194.13818059612197" x2="181.2615241571567" y1="22.490501714251888" y2="35.36715815321712" stroke-width="5" stroke="#9b9b9b" stroke-linecap="round"></line><line x1="194.13818059612197" x2="181.2615241571567" y1="-489.5094982857481" y2="-476.63284184678287" stroke-width="5" stroke="#9b9b9b" stroke-linecap="round"></line><line x1="450.13818059612197" x2="437.2615241571567" y1="-489.5094982857481" y2="-476.63284184678287" stroke-width="5" stroke="#9b9b9b" stroke-linecap="round"></line><line x1="706.138180596122" x2="693.2615241571567" y1="-489.5094982857481" y2="-476.63284184678287" stroke-width="5" stroke="#9b9b9b" stroke-linecap="round"></line><line x1="194.13818059612197" x2="181.2615241571567" y1="-233.50949828574812" y2="-220.63284184678287" stroke-width="5" stroke="#9b9b9b" stroke-linecap="round"></line><line x1="450.13818059612197" x2="437.2615241571567" y1="-233.50949828574812" y2="-220.63284184678287" stroke-width="5" stroke="#9b9b9b" stroke-linecap="round"></line><line x1="706.138180596122" x2="693.2615241571567" y1="-233.50949828574812" y2="-220.63284184678287" stroke-width="5" stroke="#9b9b9b" stroke-linecap="round"></line><line x1="194.13818059612197" x2="181.2615241571567" y1="22.490501714251888" y2="35.36715815321712" stroke-width="5" stroke="#9b9b9b" stroke-linecap="round"></line><line x1="450.13818059612197" x2="437.2615241571567" y1="22.490501714251888" y2="35.36715815321712" stroke-width="5" stroke="#9b9b9b" stroke-linecap="round"></line><line x1="706.138180596122" x2="693.2615241571567" y1="22.490501714251888" y2="35.36715815321712" stroke-width="5" stroke="#9b9b9b" stroke-linecap="round"></line>
  <animateTransform attributeName="transform" type="translate" values="0 0;-256 256" keyTimes="0;1" repeatCount="indefinite" dur="2.5s"></animateTransform>
</g><g>
  <line x1="214.3804713428583" x2="192.95069018216589" y1="211.88428268941686" y2="233.31406385010928" stroke-width="5" stroke="#9b9b9b" stroke-linecap="round"></line><line x1="214.3804713428583" x2="192.95069018216589" y1="-300.11571731058314" y2="-278.6859361498907" stroke-width="5" stroke="#9b9b9b" stroke-linecap="round"></line><line x1="470.3804713428583" x2="448.9506901821659" y1="-300.11571731058314" y2="-278.6859361498907" stroke-width="5" stroke="#9b9b9b" stroke-linecap="round"></line><line x1="726.3804713428583" x2="704.9506901821659" y1="-300.11571731058314" y2="-278.6859361498907" stroke-width="5" stroke="#9b9b9b" stroke-linecap="round"></line><line x1="214.3804713428583" x2="192.95069018216589" y1="-44.115717310583136" y2="-22.685936149890722" stroke-width="5" stroke="#9b9b9b" stroke-linecap="round"></line><line x1="470.3804713428583" x2="448.9506901821659" y1="-44.115717310583136" y2="-22.685936149890722" stroke-width="5" stroke="#9b9b9b" stroke-linecap="round"></line><line x1="726.3804713428583" x2="704.9506901821659" y1="-44.115717310583136" y2="-22.685936149890722" stroke-width="5" stroke="#9b9b9b" stroke-linecap="round"></line><line x1="214.3804713428583" x2="192.95069018216589" y1="211.88428268941686" y2="233.31406385010928" stroke-width="5" stroke="#9b9b9b" stroke-linecap="round"></line><line x1="470.3804713428583" x2="448.9506901821659" y1="211.88428268941686" y2="233.31406385010928" stroke-width="5" stroke="#9b9b9b" stroke-linecap="round"></line><line x1="726.3804713428583" x2="704.9506901821659" y1="211.88428268941686" y2="233.31406385010928" stroke-width="5" stroke="#9b9b9b" stroke-linecap="round"></line><line x1="158.84585973176937" x2="132.93936721946338" y1="126.20675080644618" y2="152.11324331875218" stroke-width="5" stroke="#9b9b9b" stroke-linecap="round"></line><line x1="158.84585973176937" x2="132.93936721946338" y1="-385.79324919355383" y2="-359.8867566812478" stroke-width="5" stroke="#9b9b9b" stroke-linecap="round"></line><line x1="414.84585973176934" x2="388.9393672194634" y1="-385.79324919355383" y2="-359.8867566812478" stroke-width="5" stroke="#9b9b9b" stroke-linecap="round"></line><line x1="670.8458597317693" x2="644.9393672194634" y1="-385.79324919355383" y2="-359.8867566812478" stroke-width="5" stroke="#9b9b9b" stroke-linecap="round"></line><line x1="158.84585973176937" x2="132.93936721946338" y1="-129.79324919355383" y2="-103.88675668124782" stroke-width="5" stroke="#9b9b9b" stroke-linecap="round"></line><line x1="414.84585973176934" x2="388.9393672194634" y1="-129.79324919355383" y2="-103.88675668124782" stroke-width="5" stroke="#9b9b9b" stroke-linecap="round"></line><line x1="670.8458597317693" x2="644.9393672194634" y1="-129.79324919355383" y2="-103.88675668124782" stroke-width="5" stroke="#9b9b9b" stroke-linecap="round"></line><line x1="158.84585973176937" x2="132.93936721946338" y1="126.20675080644618" y2="152.11324331875218" stroke-width="5" stroke="#9b9b9b" stroke-linecap="round"></line><line x1="414.84585973176934" x2="388.9393672194634" y1="126.20675080644618" y2="152.11324331875218" stroke-width="5" stroke="#9b9b9b" stroke-linecap="round"></line><line x1="670.8458597317693" x2="644.9393672194634" y1="126.20675080644618" y2="152.11324331875218" stroke-width="5" stroke="#9b9b9b" stroke-linecap="round"></line><line x1="117.60905129957516" x2="110.38166417582457" y1="91.19951378562737" y2="98.42690090937796" stroke-width="5" stroke="#9b9b9b" stroke-linecap="round"></line><line x1="117.60905129957516" x2="110.38166417582457" y1="-420.80048621437265" y2="-413.573099090622" stroke-width="5" stroke="#9b9b9b" stroke-linecap="round"></line><line x1="373.6090512995752" x2="366.38166417582454" y1="-420.80048621437265" y2="-413.573099090622" stroke-width="5" stroke="#9b9b9b" stroke-linecap="round"></line><line x1="629.6090512995752" x2="622.3816641758245" y1="-420.80048621437265" y2="-413.573099090622" stroke-width="5" stroke="#9b9b9b" stroke-linecap="round"></line><line x1="117.60905129957516" x2="110.38166417582457" y1="-164.80048621437263" y2="-157.57309909062204" stroke-width="5" stroke="#9b9b9b" stroke-linecap="round"></line><line x1="373.6090512995752" x2="366.38166417582454" y1="-164.80048621437263" y2="-157.57309909062204" stroke-width="5" stroke="#9b9b9b" stroke-linecap="round"></line><line x1="629.6090512995752" x2="622.3816641758245" y1="-164.80048621437263" y2="-157.57309909062204" stroke-width="5" stroke="#9b9b9b" stroke-linecap="round"></line><line x1="117.60905129957516" x2="110.38166417582457" y1="91.19951378562737" y2="98.42690090937796" stroke-width="5" stroke="#9b9b9b" stroke-linecap="round"></line><line x1="373.6090512995752" x2="366.38166417582454" y1="91.19951378562737" y2="98.42690090937796" stroke-width="5" stroke="#9b9b9b" stroke-linecap="round"></line><line x1="629.6090512995752" x2="622.3816641758245" y1="91.19951378562737" y2="98.42690090937796" stroke-width="5" stroke="#9b9b9b" stroke-linecap="round"></line><line x1="117.82829908131036" x2="104.66184872047775" y1="211.74071721958273" y2="224.90716758041538" stroke-width="5" stroke="#9b9b9b" stroke-linecap="round"></line><line x1="117.82829908131036" x2="104.66184872047775" y1="-300.25928278041727" y2="-287.0928324195846" stroke-width="5" stroke="#9b9b9b" stroke-linecap="round"></line><line x1="373.8282990813104" x2="360.66184872047774" y1="-300.25928278041727" y2="-287.0928324195846" stroke-width="5" stroke="#9b9b9b" stroke-linecap="round"></line><line x1="629.8282990813103" x2="616.6618487204778" y1="-300.25928278041727" y2="-287.0928324195846" stroke-width="5" stroke="#9b9b9b" stroke-linecap="round"></line><line x1="117.82829908131036" x2="104.66184872047775" y1="-44.259282780417266" y2="-31.092832419584624" stroke-width="5" stroke="#9b9b9b" stroke-linecap="round"></line><line x1="373.8282990813104" x2="360.66184872047774" y1="-44.259282780417266" y2="-31.092832419584624" stroke-width="5" stroke="#9b9b9b" stroke-linecap="round"></line><line x1="629.8282990813103" x2="616.6618487204778" y1="-44.259282780417266" y2="-31.092832419584624" stroke-width="5" stroke="#9b9b9b" stroke-linecap="round"></line><line x1="117.82829908131036" x2="104.66184872047775" y1="211.74071721958273" y2="224.90716758041538" stroke-width="5" stroke="#9b9b9b" stroke-linecap="round"></line><line x1="373.8282990813104" x2="360.66184872047774" y1="211.74071721958273" y2="224.90716758041538" stroke-width="5" stroke="#9b9b9b" stroke-linecap="round"></line><line x1="629.8282990813103" x2="616.6618487204778" y1="211.74071721958273" y2="224.90716758041538" stroke-width="5" stroke="#9b9b9b" stroke-linecap="round"></line><line x1="222.54202586124117" x2="204.4547429341002" y1="233.33075918569372" y2="251.41804211283468" stroke-width="5" stroke="#9b9b9b" stroke-linecap="round"></line><line x1="222.54202586124117" x2="204.4547429341002" y1="-278.66924081430625" y2="-260.58195788716534" stroke-width="5" stroke="#9b9b9b" stroke-linecap="round"></line><line x1="478.5420258612412" x2="460.4547429341002" y1="-278.66924081430625" y2="-260.58195788716534" stroke-width="5" stroke="#9b9b9b" stroke-linecap="round"></line><line x1="734.5420258612412" x2="716.4547429341002" y1="-278.66924081430625" y2="-260.58195788716534" stroke-width="5" stroke="#9b9b9b" stroke-linecap="round"></line><line x1="222.54202586124117" x2="204.4547429341002" y1="-22.669240814306278" y2="-4.581957887165316" stroke-width="5" stroke="#9b9b9b" stroke-linecap="round"></line><line x1="478.5420258612412" x2="460.4547429341002" y1="-22.669240814306278" y2="-4.581957887165316" stroke-width="5" stroke="#9b9b9b" stroke-linecap="round"></line><line x1="734.5420258612412" x2="716.4547429341002" y1="-22.669240814306278" y2="-4.581957887165316" stroke-width="5" stroke="#9b9b9b" stroke-linecap="round"></line><line x1="222.54202586124117" x2="204.4547429341002" y1="233.33075918569372" y2="251.41804211283468" stroke-width="5" stroke="#9b9b9b" stroke-linecap="round"></line><line x1="478.5420258612412" x2="460.4547429341002" y1="233.33075918569372" y2="251.41804211283468" stroke-width="5" stroke="#9b9b9b" stroke-linecap="round"></line><line x1="734.5420258612412" x2="716.4547429341002" y1="233.33075918569372" y2="251.41804211283468" stroke-width="5" stroke="#9b9b9b" stroke-linecap="round"></line><line x1="87.70525964427095" x2="64.61761515847779" y1="190.8992383152737" y2="213.98688280106683" stroke-width="5" stroke="#9b9b9b" stroke-linecap="round"></line><line x1="87.70525964427095" x2="64.61761515847779" y1="-321.1007616847263" y2="-298.0131171989332" stroke-width="5" stroke="#9b9b9b" stroke-linecap="round"></line><line x1="343.70525964427094" x2="320.6176151584778" y1="-321.1007616847263" y2="-298.0131171989332" stroke-width="5" stroke="#9b9b9b" stroke-linecap="round"></line><line x1="599.705259644271" x2="576.6176151584777" y1="-321.1007616847263" y2="-298.0131171989332" stroke-width="5" stroke="#9b9b9b" stroke-linecap="round"></line><line x1="87.70525964427095" x2="64.61761515847779" y1="-65.10076168472631" y2="-42.01311719893317" stroke-width="5" stroke="#9b9b9b" stroke-linecap="round"></line><line x1="343.70525964427094" x2="320.6176151584778" y1="-65.10076168472631" y2="-42.01311719893317" stroke-width="5" stroke="#9b9b9b" stroke-linecap="round"></line><line x1="599.705259644271" x2="576.6176151584777" y1="-65.10076168472631" y2="-42.01311719893317" stroke-width="5" stroke="#9b9b9b" stroke-linecap="round"></line><line x1="87.70525964427095" x2="64.61761515847779" y1="190.8992383152737" y2="213.98688280106683" stroke-width="5" stroke="#9b9b9b" stroke-linecap="round"></line><line x1="343.70525964427094" x2="320.6176151584778" y1="190.8992383152737" y2="213.98688280106683" stroke-width="5" stroke="#9b9b9b" stroke-linecap="round"></line><line x1="599.705259644271" x2="576.6176151584777" y1="190.8992383152737" y2="213.98688280106683" stroke-width="5" stroke="#9b9b9b" stroke-linecap="round"></line><line x1="216.2543215802856" x2="197.39197989020283" y1="-5.616342801958595" y2="13.245998888124191" stroke-width="5" stroke="#9b9b9b" stroke-linecap="round"></line><line x1="216.2543215802856" x2="197.39197989020283" y1="-517.6163428019586" y2="-498.7540011118758" stroke-width="5" stroke="#9b9b9b" stroke-linecap="round"></line><line x1="472.2543215802856" x2="453.39197989020283" y1="-517.6163428019586" y2="-498.7540011118758" stroke-width="5" stroke="#9b9b9b" stroke-linecap="round"></line><line x1="728.2543215802856" x2="709.3919798902028" y1="-517.6163428019586" y2="-498.7540011118758" stroke-width="5" stroke="#9b9b9b" stroke-linecap="round"></line><line x1="216.2543215802856" x2="197.39197989020283" y1="-261.6163428019586" y2="-242.75400111187582" stroke-width="5" stroke="#9b9b9b" stroke-linecap="round"></line><line x1="472.2543215802856" x2="453.39197989020283" y1="-261.6163428019586" y2="-242.75400111187582" stroke-width="5" stroke="#9b9b9b" stroke-linecap="round"></line><line x1="728.2543215802856" x2="709.3919798902028" y1="-261.6163428019586" y2="-242.75400111187582" stroke-width="5" stroke="#9b9b9b" stroke-linecap="round"></line><line x1="216.2543215802856" x2="197.39197989020283" y1="-5.616342801958595" y2="13.245998888124191" stroke-width="5" stroke="#9b9b9b" stroke-linecap="round"></line><line x1="472.2543215802856" x2="453.39197989020283" y1="-5.616342801958595" y2="13.245998888124191" stroke-width="5" stroke="#9b9b9b" stroke-linecap="round"></line><line x1="728.2543215802856" x2="709.3919798902028" y1="-5.616342801958595" y2="13.245998888124191" stroke-width="5" stroke="#9b9b9b" stroke-linecap="round"></line><line x1="216.2543215802856" x2="197.39197989020283" y1="250.38365719804142" y2="269.2459988881242" stroke-width="5" stroke="#9b9b9b" stroke-linecap="round"></line><line x1="126.40556226334225" x2="106.72525203509615" y1="245.2177680525333" y2="264.8980782807794" stroke-width="5" stroke="#9b9b9b" stroke-linecap="round"></line><line x1="126.40556226334225" x2="106.72525203509615" y1="-266.7822319474667" y2="-247.10192171922063" stroke-width="5" stroke="#9b9b9b" stroke-linecap="round"></line><line x1="382.40556226334223" x2="362.72525203509616" y1="-266.7822319474667" y2="-247.10192171922063" stroke-width="5" stroke="#9b9b9b" stroke-linecap="round"></line><line x1="638.4055622633423" x2="618.7252520350961" y1="-266.7822319474667" y2="-247.10192171922063" stroke-width="5" stroke="#9b9b9b" stroke-linecap="round"></line><line x1="126.40556226334225" x2="106.72525203509615" y1="-10.782231947466698" y2="8.898078280779373" stroke-width="5" stroke="#9b9b9b" stroke-linecap="round"></line><line x1="382.40556226334223" x2="362.72525203509616" y1="-10.782231947466698" y2="8.898078280779373" stroke-width="5" stroke="#9b9b9b" stroke-linecap="round"></line><line x1="638.4055622633423" x2="618.7252520350961" y1="-10.782231947466698" y2="8.898078280779373" stroke-width="5" stroke="#9b9b9b" stroke-linecap="round"></line><line x1="126.40556226334225" x2="106.72525203509615" y1="245.2177680525333" y2="264.8980782807794" stroke-width="5" stroke="#9b9b9b" stroke-linecap="round"></line><line x1="382.40556226334223" x2="362.72525203509616" y1="245.2177680525333" y2="264.8980782807794" stroke-width="5" stroke="#9b9b9b" stroke-linecap="round"></line><line x1="638.4055622633423" x2="618.7252520350961" y1="245.2177680525333" y2="264.8980782807794" stroke-width="5" stroke="#9b9b9b" stroke-linecap="round"></line><line x1="74.55036570507828" x2="45.79455438370126" y1="-6.065351497494143" y2="22.69045982388287" stroke-width="5" stroke="#9b9b9b" stroke-linecap="round"></line><line x1="74.55036570507828" x2="45.79455438370126" y1="-518.0653514974941" y2="-489.30954017611714" stroke-width="5" stroke="#9b9b9b" stroke-linecap="round"></line><line x1="330.55036570507826" x2="301.79455438370127" y1="-518.0653514974941" y2="-489.30954017611714" stroke-width="5" stroke="#9b9b9b" stroke-linecap="round"></line><line x1="586.5503657050783" x2="557.7945543837012" y1="-518.0653514974941" y2="-489.30954017611714" stroke-width="5" stroke="#9b9b9b" stroke-linecap="round"></line><line x1="74.55036570507828" x2="45.79455438370126" y1="-262.06535149749413" y2="-233.30954017611714" stroke-width="5" stroke="#9b9b9b" stroke-linecap="round"></line><line x1="330.55036570507826" x2="301.79455438370127" y1="-262.06535149749413" y2="-233.30954017611714" stroke-width="5" stroke="#9b9b9b" stroke-linecap="round"></line><line x1="586.5503657050783" x2="557.7945543837012" y1="-262.06535149749413" y2="-233.30954017611714" stroke-width="5" stroke="#9b9b9b" stroke-linecap="round"></line><line x1="74.55036570507828" x2="45.79455438370126" y1="-6.065351497494143" y2="22.69045982388287" stroke-width="5" stroke="#9b9b9b" stroke-linecap="round"></line><line x1="330.55036570507826" x2="301.79455438370127" y1="-6.065351497494143" y2="22.69045982388287" stroke-width="5" stroke="#9b9b9b" stroke-linecap="round"></line><line x1="586.5503657050783" x2="557.7945543837012" y1="-6.065351497494143" y2="22.69045982388287" stroke-width="5" stroke="#9b9b9b" stroke-linecap="round"></line><line x1="74.55036570507828" x2="45.79455438370126" y1="249.93464850250587" y2="278.69045982388286" stroke-width="5" stroke="#9b9b9b" stroke-linecap="round"></line><line x1="157.88980260012826" x2="148.9947410483567" y1="163.30497686887676" y2="172.20003842064833" stroke-width="5" stroke="#9b9b9b" stroke-linecap="round"></line><line x1="157.88980260012826" x2="148.9947410483567" y1="-348.6950231311232" y2="-339.7999615793517" stroke-width="5" stroke="#9b9b9b" stroke-linecap="round"></line><line x1="413.8898026001283" x2="404.9947410483567" y1="-348.6950231311232" y2="-339.7999615793517" stroke-width="5" stroke="#9b9b9b" stroke-linecap="round"></line><line x1="669.8898026001283" x2="660.9947410483567" y1="-348.6950231311232" y2="-339.7999615793517" stroke-width="5" stroke="#9b9b9b" stroke-linecap="round"></line><line x1="157.88980260012826" x2="148.9947410483567" y1="-92.69502313112324" y2="-83.79996157935167" stroke-width="5" stroke="#9b9b9b" stroke-linecap="round"></line><line x1="413.8898026001283" x2="404.9947410483567" y1="-92.69502313112324" y2="-83.79996157935167" stroke-width="5" stroke="#9b9b9b" stroke-linecap="round"></line><line x1="669.8898026001283" x2="660.9947410483567" y1="-92.69502313112324" y2="-83.79996157935167" stroke-width="5" stroke="#9b9b9b" stroke-linecap="round"></line><line x1="157.88980260012826" x2="148.9947410483567" y1="163.30497686887676" y2="172.20003842064833" stroke-width="5" stroke="#9b9b9b" stroke-linecap="round"></line><line x1="413.8898026001283" x2="404.9947410483567" y1="163.30497686887676" y2="172.20003842064833" stroke-width="5" stroke="#9b9b9b" stroke-linecap="round"></line><line x1="669.8898026001283" x2="660.9947410483567" y1="163.30497686887676" y2="172.20003842064833" stroke-width="5" stroke="#9b9b9b" stroke-linecap="round"></line>
  <animateTransform attributeName="transform" type="translate" values="0 0;-256 256" keyTimes="0;1" repeatCount="indefinite" dur="1.6666666666666665s"></animateTransform>
</g></g>
  </pattern>
</defs>
<rect x="0" y="0" width="1084" height="322" fill="url(#pid-0.9461528261162737)"></rect>
</svg>